<svg width="50" xmlns="http://www.w3.org/2000/svg" height="50" id="screenshot-e2d7dd91-dab7-80b5-8006-7cb47ec8d71e" viewBox="0 0 50 50" xmlns:xlink="http://www.w3.org/1999/xlink" fill="none" version="1.1"><g id="shape-e2d7dd91-dab7-80b5-8006-7cb47ec8d71e"><defs><clipPath id="frame-clip-e2d7dd91-dab7-80b5-8006-7cb47ec8d71e-render-1" class="frame-clip frame-clip-def"><rect rx="0" ry="0" x="0" y="0" width="50" height="50" transform="matrix(1.000000, 0.000000, 0.000000, 1.000000, 0.000000, 0.000000)"/></clipPath></defs><g class="frame-container-wrapper"><g class="frame-container-blur"><g class="frame-container-shadows"><g clip-path="url(#frame-clip-e2d7dd91-dab7-80b5-8006-7cb47ec8d71e-render-1)" fill="none"><g class="fills" id="fills-e2d7dd91-dab7-80b5-8006-7cb47ec8d71e"><rect rx="0" ry="0" x="0" y="0" width="50" height="50" transform="matrix(1.000000, 0.000000, 0.000000, 1.000000, 0.000000, 0.000000)" class="frame-background"/></g><g class="frame-children"><g id="shape-e2d7dd91-dab7-80b5-8006-7cb47ec8d71f" style="display: none;"><g class="frame-container-wrapper"><g class="frame-container-blur"><g class="frame-container-shadows"><g fill="none"><g class="fills" id="fills-e2d7dd91-dab7-80b5-8006-7cb47ec8d71f"><rect rx="0" ry="0" x="1" y="1" width="48" height="48" transform="matrix(1.000000, 0.000000, 0.000000, 1.000000, 0.000000, 0.000000)" class="frame-background"/></g><g class="frame-children"><g id="shape-e2d7dd91-dab7-80b5-8006-7cb47ec8d720" style="display: none;"><g class="fills" id="fills-e2d7dd91-dab7-80b5-8006-7cb47ec8d720"><rect width="24" height="24" x="1" transform="matrix(1.000000, 0.000000, 0.000000, 1.000000, 0.000000, 0.000000)" style="fill: none;" ry="0" fill="none" rx="0" y="1.0000000000001137"/></g></g><g id="shape-e2d7dd91-dab7-80b5-8006-7cb47ec8d721" rx="0" ry="0" style="fill: rgb(0, 0, 0);"><g id="shape-e2d7dd91-dab7-80b5-8006-7cb47ec8d722"><g class="fills" id="fills-e2d7dd91-dab7-80b5-8006-7cb47ec8d722"><path d="M27,40.5C26.660888671875,40.494384765625,26.33209228515625,40.3824462890625,26.05999755859375,40.17999267578125L16.47998046875,32.5L7,32.5C6.17608642578125,32.4892578125,5.5107421875,31.82391357421875,5.5,31L5.5,19C5.5107421875,18.17608642578125,6.17608642578125,17.5107421875,7,17.5L16.47998046875,17.5L26.05999755859375,9.82000732421875C26.51141357421875,9.45697021484375,27.131591796875,9.38629150390625,27.653076171875,9.63848876953125C28.17462158203125,9.8907470703125,28.5042724609375,10.42071533203125,28.5,11L28.5,39C28.4964599609375,39.580322265625,28.16278076171875,40.1080322265625,27.6400146484375,40.3599853515625C27.44049072265625,40.4559326171875,27.2213134765625,40.50384521484375,27,40.5ZM8.5,29.5L17,29.5C17.33984375,29.50146484375,17.66986083984375,29.61376953125,17.94000244140625,29.82000732421875L25.5,35.82000732421875L25.5,14.1199951171875L17.94000244140625,20.1199951171875C17.677734375,20.3477783203125,17.346923828125,20.48150634765625,17,20.5L8.5,20.5Z"/></g></g><g id="shape-e2d7dd91-dab7-80b5-8006-7cb47ec8d723"><g class="fills" id="fills-e2d7dd91-dab7-80b5-8006-7cb47ec8d723"><path d="M37.91998291015625,37.1400146484375C37.56109619140625,37.13946533203125,37.21392822265625,37.011962890625,36.94000244140625,36.780029296875C36.6348876953125,36.52081298828125,36.44781494140625,36.1490478515625,36.42144775390625,35.7496337890625C36.39508056640625,35.35015869140625,36.53167724609375,34.95709228515625,36.79998779296875,34.65997314453125C41.72430419921875,29.16131591796875,41.72430419921875,20.83868408203125,36.79998779296875,15.34002685546875C36.24774169921875,14.721435546875,36.30145263671875,13.77227783203125,36.91998291015625,13.219970703125C37.53857421875,12.667724609375,38.48773193359375,12.721435546875,39.03997802734375,13.34002685546875C44.99560546875,19.95733642578125,44.99560546875,30.002685546875,39.03997802734375,36.6199951171875C38.763671875,36.9527587890625,38.35247802734375,37.1436767578125,37.91998291015625,37.1400146484375Z"/></g></g><g id="shape-e2d7dd91-dab7-80b5-8006-7cb47ec8d724"><g class="fills" id="fills-e2d7dd91-dab7-80b5-8006-7cb47ec8d724"><path d="M33.219970703125,31.760009765625C32.8961181640625,31.755859375,32.58160400390625,31.6510009765625,32.32000732421875,31.46002197265625C32.00177001953125,31.2213134765625,31.79132080078125,30.865966796875,31.73504638671875,30.47210693359375C31.6788330078125,30.07830810546875,31.78131103515625,29.67828369140625,32.02001953125,29.3599853515625C33.98028564453125,26.78387451171875,33.98028564453125,23.21612548828125,32.02001953125,20.6400146484375C31.52294921875,19.97723388671875,31.65728759765625,19.03704833984375,32.32000732421875,18.53997802734375C32.98272705078125,18.04296875,33.9229736328125,18.17724609375,34.41998291015625,18.84002685546875C37.20074462890625,22.4759521484375,37.20074462890625,27.5240478515625,34.41998291015625,31.15997314453125C34.1326904296875,31.53289794921875,33.690673828125,31.75390625,33.219970703125,31.760009765625Z"/></g></g></g></g></g></g></g></g></g><g id="shape-e2d7dd91-dab7-80b5-8006-7cb473a6e8cf"><g class="frame-container-wrapper"><g class="frame-container-blur"><g class="frame-container-shadows"><g fill="none"><g class="fills" id="fills-e2d7dd91-dab7-80b5-8006-7cb473a6e8cf"><rect rx="0" ry="0" x="1" y="1" width="48" height="48" transform="matrix(1.000000, 0.000000, 0.000000, 1.000000, 0.000000, 0.000000)" class="frame-background"/></g><g class="frame-children"><g id="shape-e2d7dd91-dab7-80b5-8006-7cb473a6e8d0" style="display: none;"><g class="fills" id="fills-e2d7dd91-dab7-80b5-8006-7cb473a6e8d0"><rect width="24" height="24" x="1" transform="matrix(1.000000, 0.000000, 0.000000, 1.000000, 0.000000, 0.000000)" style="fill: none;" ry="0" fill="none" rx="0" y="1"/></g></g><g id="shape-e2d7dd91-dab7-80b5-8006-7cb473a6e8d1" rx="0" ry="0" style="fill: rgb(0, 0, 0);"><g id="shape-e2d7dd91-dab7-80b5-8006-7cb473a6e8d2"><g class="fills" id="fills-e2d7dd91-dab7-80b5-8006-7cb473a6e8d2"><path d="M35,40.5C34.660888671875,40.494140625,34.3321533203125,40.38232421875,34.06005859375,40.18017578125L24.47998046875,32.5L15,32.5C14.1761474609375,32.4892578125,13.5107421875,31.82373046875,13.5,31L13.5,19C13.5107421875,18.17626953125,14.1761474609375,17.5107421875,15,17.5L24.47998046875,17.5L34.06005859375,9.81982421875C34.511474609375,9.45703125,35.131591796875,9.38623046875,35.653076171875,9.638671875C36.1746826171875,9.890625,36.5042724609375,10.4208984375,36.5,11L36.5,39C36.49560546875,39.57470703125,36.1717529296875,40.0986328125,35.6600341796875,40.35986328125C35.452880859375,40.4541015625,35.2275390625,40.501953125,35,40.5ZM16.5,29.5L25,29.5C25.33984375,29.50146484375,25.669921875,29.61376953125,25.9400634765625,29.81982421875L33.5,35.81982421875L33.5,14.1201171875L25.9400634765625,20.1201171875C25.669921875,20.326171875,25.33984375,20.4384765625,25,20.43994140625L16.5,20.43994140625Z"/></g></g></g></g></g></g></g></g></g></g></g></g></g></g></g></svg>