<svg width="50" xmlns="http://www.w3.org/2000/svg" height="50" id="screenshot-40f7b149-a884-8039-8006-5aa977ae09ed" viewBox="0 0 50 50" xmlns:xlink="http://www.w3.org/1999/xlink" fill="none" version="1.1"><g id="shape-40f7b149-a884-8039-8006-5aa977ae09ed"><defs><clipPath id="frame-clip-40f7b149-a884-8039-8006-5aa977ae09ed-render-31" class="frame-clip frame-clip-def"><rect rx="0" ry="0" x="0" y="0" width="50" height="49.999999999999886" transform="matrix(1.000000, 0.000000, 0.000000, 1.000000, 0.000000, 0.000000)"/></clipPath></defs><g class="frame-container-wrapper"><g class="frame-container-blur"><g class="frame-container-shadows"><g clip-path="url(#frame-clip-40f7b149-a884-8039-8006-5aa977ae09ed-render-31)" fill="none"><g class="fills" id="fills-40f7b149-a884-8039-8006-5aa977ae09ed"><rect rx="0" ry="0" x="0" y="0" width="50" height="49.999999999999886" transform="matrix(1.000000, 0.000000, 0.000000, 1.000000, 0.000000, 0.000000)" class="frame-background"/></g><g class="frame-children"><g id="shape-40f7b149-a884-8039-8006-5aa977b7ec16" height="800" width="800" xml:space="preserve" rx="0" ry="0" style="fill: rgb(0, 0, 0);"><g id="shape-40f7b149-a884-8039-8006-5aa977b7ec17" style="display: none;"><g class="fills" id="fills-40f7b149-a884-8039-8006-5aa977b7ec17"><rect width="42" height="42" x="4" transform="matrix(1.000000, 0.000000, 0.000000, 1.000000, 0.000000, 0.000000)" style="fill: none;" ry="0" fill="none" rx="0" y="4"/></g></g><g id="shape-40f7b149-a884-8039-8006-5aa977b7ec18"><g class="fills" id="fills-40f7b149-a884-8039-8006-5aa977b7ec18"><path d="M25.512,12.332C19.346,12.332,14.329,17.349,14.329,23.515C14.329,26.041,15.157,28.427,16.723,30.413C17.023,30.794,17.346,31.169,17.658,31.532C18.591,32.614,19.472,33.637,19.786,34.787C19.793,34.812,19.852,35.053,19.843,35.875L19.841,35.994C19.832,36.661,19.819,37.575,20.495,38.260C20.958,38.729,21.606,38.958,22.478,38.958L28.525,38.958C29.467,38.958,30.143,38.727,30.594,38.254C31.204,37.613,31.163,36.785,31.136,36.237C31.131,36.140,31.126,36.043,31.125,35.945C31.115,35.122,31.177,34.890,31.179,34.881C31.498,33.731,32.530,32.518,33.440,31.448C33.744,31.092,34.031,30.754,34.298,30.415C35.865,28.429,36.693,26.042,36.693,23.515C36.693,17.349,31.677,12.332,25.512,12.332ZZM32.530,29.021C32.288,29.326,32.015,29.648,31.725,29.988C30.663,31.236,29.460,32.650,29.009,34.279C28.944,34.511,28.860,34.939,28.873,35.972C28.874,36.097,28.880,36.223,28.886,36.348C28.891,36.447,28.898,36.577,28.897,36.680C28.818,36.693,28.698,36.705,28.525,36.705L22.478,36.705C22.286,36.705,22.174,36.685,22.117,36.669C22.087,36.523,22.091,36.218,22.094,36.026L22.096,35.899C22.106,34.860,22.023,34.429,21.959,34.195C21.512,32.553,20.371,31.229,19.365,30.061C19.055,29.701,18.762,29.361,18.492,29.019C17.243,27.434,16.582,25.530,16.582,23.515C16.582,18.591,20.588,14.585,25.512,14.585C30.435,14.585,34.441,18.591,34.441,23.515C34.440,25.531,33.780,27.435,32.530,29.021ZZ"/></g><g id="strokes-9887580a-14db-80d4-8006-5aa9fb7b9c63-40f7b149-a884-8039-8006-5aa977b7ec18" class="strokes"><g class="inner-stroke-shape"><defs><clipPath id="inner-stroke-render-34-40f7b149-a884-8039-8006-5aa977b7ec18-0"><use href="#stroke-shape-render-34-40f7b149-a884-8039-8006-5aa977b7ec18-0"/></clipPath><path d="M25.512,12.332C19.346,12.332,14.329,17.349,14.329,23.515C14.329,26.041,15.157,28.427,16.723,30.413C17.023,30.794,17.346,31.169,17.658,31.532C18.591,32.614,19.472,33.637,19.786,34.787C19.793,34.812,19.852,35.053,19.843,35.875L19.841,35.994C19.832,36.661,19.819,37.575,20.495,38.260C20.958,38.729,21.606,38.958,22.478,38.958L28.525,38.958C29.467,38.958,30.143,38.727,30.594,38.254C31.204,37.613,31.163,36.785,31.136,36.237C31.131,36.140,31.126,36.043,31.125,35.945C31.115,35.122,31.177,34.890,31.179,34.881C31.498,33.731,32.530,32.518,33.440,31.448C33.744,31.092,34.031,30.754,34.298,30.415C35.865,28.429,36.693,26.042,36.693,23.515C36.693,17.349,31.677,12.332,25.512,12.332ZZM32.530,29.021C32.288,29.326,32.015,29.648,31.725,29.988C30.663,31.236,29.460,32.650,29.009,34.279C28.944,34.511,28.860,34.939,28.873,35.972C28.874,36.097,28.880,36.223,28.886,36.348C28.891,36.447,28.898,36.577,28.897,36.680C28.818,36.693,28.698,36.705,28.525,36.705L22.478,36.705C22.286,36.705,22.174,36.685,22.117,36.669C22.087,36.523,22.091,36.218,22.094,36.026L22.096,35.899C22.106,34.860,22.023,34.429,21.959,34.195C21.512,32.553,20.371,31.229,19.365,30.061C19.055,29.701,18.762,29.361,18.492,29.019C17.243,27.434,16.582,25.530,16.582,23.515C16.582,18.591,20.588,14.585,25.512,14.585C30.435,14.585,34.441,18.591,34.441,23.515C34.440,25.531,33.780,27.435,32.530,29.021ZZ" id="stroke-shape-render-34-40f7b149-a884-8039-8006-5aa977b7ec18-0" style="fill: none; stroke-width: 6; stroke: rgb(0, 0, 0); stroke-opacity: 1;"/></defs><use href="#stroke-shape-render-34-40f7b149-a884-8039-8006-5aa977b7ec18-0" clip-path="url('#inner-stroke-render-34-40f7b149-a884-8039-8006-5aa977b7ec18-0')"/></g></g></g><g id="shape-40f7b149-a884-8039-8006-5aa977b812bc"><g class="fills" id="fills-40f7b149-a884-8039-8006-5aa977b812bc"><path d="M28.292,39.975L22.730,39.975C21.529,39.975,20.553,40.952,20.553,42.153L20.553,43.822C20.553,45.023,21.529,46.000,22.730,46.000L28.292,46.000C29.493,46.000,30.470,45.023,30.470,43.822L30.470,42.153C30.470,40.952,29.493,39.975,28.292,39.975ZZM28.217,43.747L22.805,43.747L22.805,42.228L28.217,42.228L28.217,43.747ZZ"/></g><g id="strokes-9887580a-14db-80d4-8006-5aa9fb7c26fc-40f7b149-a884-8039-8006-5aa977b812bc" class="strokes"><g class="inner-stroke-shape"><defs><clipPath id="inner-stroke-render-35-40f7b149-a884-8039-8006-5aa977b812bc-0"><use href="#stroke-shape-render-35-40f7b149-a884-8039-8006-5aa977b812bc-0"/></clipPath><path d="M28.292,39.975L22.730,39.975C21.529,39.975,20.553,40.952,20.553,42.153L20.553,43.822C20.553,45.023,21.529,46.000,22.730,46.000L28.292,46.000C29.493,46.000,30.470,45.023,30.470,43.822L30.470,42.153C30.470,40.952,29.493,39.975,28.292,39.975ZZM28.217,43.747L22.805,43.747L22.805,42.228L28.217,42.228L28.217,43.747ZZ" id="stroke-shape-render-35-40f7b149-a884-8039-8006-5aa977b812bc-0" style="fill: none; stroke-width: 6; stroke: rgb(0, 0, 0); stroke-opacity: 1;"/></defs><use href="#stroke-shape-render-35-40f7b149-a884-8039-8006-5aa977b812bc-0" clip-path="url('#inner-stroke-render-35-40f7b149-a884-8039-8006-5aa977b812bc-0')"/></g></g></g><g id="shape-40f7b149-a884-8039-8006-5aa977b812bd"><g class="fills" id="fills-40f7b149-a884-8039-8006-5aa977b812bd"><path d="M25.511,10.875C26.133,10.875,26.637,10.371,26.637,9.748L26.637,5.126C26.637,4.504,26.133,4.000,25.511,4.000C24.889,4.000,24.385,4.504,24.385,5.126L24.385,9.748C24.385,10.371,24.889,10.875,25.511,10.875ZZ"/></g><g id="strokes-9887580a-14db-80d4-8006-5aa9fb7c6042-40f7b149-a884-8039-8006-5aa977b812bd" class="strokes"><g class="inner-stroke-shape"><defs><clipPath id="inner-stroke-render-36-40f7b149-a884-8039-8006-5aa977b812bd-0"><use href="#stroke-shape-render-36-40f7b149-a884-8039-8006-5aa977b812bd-0"/></clipPath><path d="M25.511,10.875C26.133,10.875,26.637,10.371,26.637,9.748L26.637,5.126C26.637,4.504,26.133,4.000,25.511,4.000C24.889,4.000,24.385,4.504,24.385,5.126L24.385,9.748C24.385,10.371,24.889,10.875,25.511,10.875ZZ" id="stroke-shape-render-36-40f7b149-a884-8039-8006-5aa977b812bd-0" style="fill: none; stroke-width: 6; stroke: rgb(0, 0, 0); stroke-opacity: 1;"/></defs><use href="#stroke-shape-render-36-40f7b149-a884-8039-8006-5aa977b812bd-0" clip-path="url('#inner-stroke-render-36-40f7b149-a884-8039-8006-5aa977b812bd-0')"/></g></g></g><g id="shape-40f7b149-a884-8039-8006-5aa977b812be"><g class="fills" id="fills-40f7b149-a884-8039-8006-5aa977b812be"><path d="M40.329,9.196C39.900,8.746,39.187,8.729,38.736,9.158L35.317,12.422C34.867,12.851,34.850,13.564,35.280,14.014C35.501,14.246,35.798,14.363,36.095,14.363C36.374,14.363,36.654,14.259,36.872,14.051L40.292,10.788C40.742,10.359,40.758,9.646,40.329,9.196ZZ"/></g><g id="strokes-9887580a-14db-80d4-8006-5aa9fb7c8f3a-40f7b149-a884-8039-8006-5aa977b812be" class="strokes"><g class="inner-stroke-shape"><defs><clipPath id="inner-stroke-render-37-40f7b149-a884-8039-8006-5aa977b812be-0"><use href="#stroke-shape-render-37-40f7b149-a884-8039-8006-5aa977b812be-0"/></clipPath><path d="M40.329,9.196C39.900,8.746,39.187,8.729,38.736,9.158L35.317,12.422C34.867,12.851,34.850,13.564,35.280,14.014C35.501,14.246,35.798,14.363,36.095,14.363C36.374,14.363,36.654,14.259,36.872,14.051L40.292,10.788C40.742,10.359,40.758,9.646,40.329,9.196ZZ" id="stroke-shape-render-37-40f7b149-a884-8039-8006-5aa977b812be-0" style="fill: none; stroke-width: 6; stroke: rgb(0, 0, 0); stroke-opacity: 1;"/></defs><use href="#stroke-shape-render-37-40f7b149-a884-8039-8006-5aa977b812be-0" clip-path="url('#inner-stroke-render-37-40f7b149-a884-8039-8006-5aa977b812be-0')"/></g></g></g><g id="shape-40f7b149-a884-8039-8006-5aa977b812bf"><g class="fills" id="fills-40f7b149-a884-8039-8006-5aa977b812bf"><path d="M43.686,20.459C43.685,20.459,43.685,20.459,43.686,20.459ZL39.283,20.466C38.660,20.467,38.157,20.972,38.158,21.594C38.159,22.215,38.663,22.718,39.284,22.718C39.285,22.718,39.286,22.718,39.286,22.718L43.688,22.711C44.310,22.710,44.813,22.205,44.812,21.583C44.811,20.961,44.307,20.459,43.686,20.459ZZ"/></g><g id="strokes-9887580a-14db-80d4-8006-5aa9fb7d2d96-40f7b149-a884-8039-8006-5aa977b812bf" class="strokes"><g class="inner-stroke-shape"><defs><clipPath id="inner-stroke-render-38-40f7b149-a884-8039-8006-5aa977b812bf-0"><use href="#stroke-shape-render-38-40f7b149-a884-8039-8006-5aa977b812bf-0"/></clipPath><path d="M43.686,20.459C43.685,20.459,43.685,20.459,43.686,20.459ZL39.283,20.466C38.660,20.467,38.157,20.972,38.158,21.594C38.159,22.215,38.663,22.718,39.284,22.718C39.285,22.718,39.286,22.718,39.286,22.718L43.688,22.711C44.310,22.710,44.813,22.205,44.812,21.583C44.811,20.961,44.307,20.459,43.686,20.459ZZ" id="stroke-shape-render-38-40f7b149-a884-8039-8006-5aa977b812bf-0" style="fill: none; stroke-width: 6; stroke: rgb(0, 0, 0); stroke-opacity: 1;"/></defs><use href="#stroke-shape-render-38-40f7b149-a884-8039-8006-5aa977b812bf-0" clip-path="url('#inner-stroke-render-38-40f7b149-a884-8039-8006-5aa977b812bf-0')"/></g></g></g><g id="shape-40f7b149-a884-8039-8006-5aa977b812c0"><g class="fills" id="fills-40f7b149-a884-8039-8006-5aa977b812c0"><path d="M15.171,13.714C15.600,13.264,15.583,12.551,15.133,12.121L11.714,8.858C11.264,8.429,10.551,8.445,10.122,8.895C9.692,9.345,9.709,10.058,10.159,10.488L13.578,13.751C13.796,13.959,14.076,14.062,14.356,14.062C14.653,14.062,14.949,13.945,15.171,13.714ZZ"/></g><g id="strokes-9887580a-14db-80d4-8006-5aa9fb7d6461-40f7b149-a884-8039-8006-5aa977b812c0" class="strokes"><g class="inner-stroke-shape"><defs><clipPath id="inner-stroke-render-39-40f7b149-a884-8039-8006-5aa977b812c0-0"><use href="#stroke-shape-render-39-40f7b149-a884-8039-8006-5aa977b812c0-0"/></clipPath><path d="M15.171,13.714C15.600,13.264,15.583,12.551,15.133,12.121L11.714,8.858C11.264,8.429,10.551,8.445,10.122,8.895C9.692,9.345,9.709,10.058,10.159,10.488L13.578,13.751C13.796,13.959,14.076,14.062,14.356,14.062C14.653,14.062,14.949,13.945,15.171,13.714ZZ" id="stroke-shape-render-39-40f7b149-a884-8039-8006-5aa977b812c0-0" style="fill: none; stroke-width: 6; stroke: rgb(0, 0, 0); stroke-opacity: 1;"/></defs><use href="#stroke-shape-render-39-40f7b149-a884-8039-8006-5aa977b812c0-0" clip-path="url('#inner-stroke-render-39-40f7b149-a884-8039-8006-5aa977b812c0-0')"/></g></g></g><g id="shape-40f7b149-a884-8039-8006-5aa977b812c1"><g class="fills" id="fills-40f7b149-a884-8039-8006-5aa977b812c1"><path d="M10.717,20.466L6.315,20.459C6.315,20.459,6.314,20.459,6.314,20.459C5.692,20.459,5.188,20.962,5.187,21.583C5.186,22.205,5.690,22.710,6.312,22.711L10.713,22.718C10.714,22.718,10.715,22.718,10.715,22.718C11.336,22.718,11.840,22.215,11.841,21.594C11.843,20.972,11.339,20.467,10.717,20.466ZZ"/></g><g id="strokes-9887580a-14db-80d4-8006-5aa9fb7da18a-40f7b149-a884-8039-8006-5aa977b812c1" class="strokes"><g class="inner-stroke-shape"><defs><clipPath id="inner-stroke-render-40-40f7b149-a884-8039-8006-5aa977b812c1-0"><use href="#stroke-shape-render-40-40f7b149-a884-8039-8006-5aa977b812c1-0"/></clipPath><path d="M10.717,20.466L6.315,20.459C6.315,20.459,6.314,20.459,6.314,20.459C5.692,20.459,5.188,20.962,5.187,21.583C5.186,22.205,5.690,22.710,6.312,22.711L10.713,22.718C10.714,22.718,10.715,22.718,10.715,22.718C11.336,22.718,11.840,22.215,11.841,21.594C11.843,20.972,11.339,20.467,10.717,20.466ZZ" id="stroke-shape-render-40-40f7b149-a884-8039-8006-5aa977b812c1-0" style="fill: none; stroke-width: 6; stroke: rgb(0, 0, 0); stroke-opacity: 1;"/></defs><use href="#stroke-shape-render-40-40f7b149-a884-8039-8006-5aa977b812c1-0" clip-path="url('#inner-stroke-render-40-40f7b149-a884-8039-8006-5aa977b812c1-0')"/></g></g></g></g></g></g></g></g></g></g></svg>